 <svg version="1.0" xmlns="http://www.w3.org/2000/svg" width="266.000000pt" height="149.000000pt" viewBox="0 0 266.000000 149.000000" preserveAspectRatio="xMidYMid meet">  <g transform="translate(0.000000,149.000000) scale(0.100000,-0.100000)" fill="#e20808" stroke="none"> <path d="M1290 1278 l0 -208 -37 0 c-21 0 -65 -7 -98 -15 -33 -8 -63 -14 -67 -15 -3 0 -19 37 -33 83 -31 92 -36 100 -57 92 -12 -5 -9 -21 18 -99 l32 -93 -41 -18 c-66 -28 -128 -75 -120 -88 4 -7 -2 -5 -14 3 -12 8 -79 84 -149 168 -111 134 -129 151 -142 139 -12 -13 -1 -31 94 -143 59 -71 123 -146 143 -166 28 -31 33 -40 22 -50 -10 -11 -11 -9 -5 6 6 14 4 17 -6 11 -18 -11 -82 -83 -103 -116 -11 -16 -23 -29 -28 -29 -5 0 -42 18 -81 40 -54 31 -73 38 -79 28 -14 -21 -12 -24 53 -58 63 -34 118 -47 118 -29 0 6 5 7 12 3 6 -4 8 -3 5 3 -4 6 1 17 10 24 15 12 16 12 10 -4 -4 -11 -3 -16 4 -12 6 4 8 12 6 19 -3 6 4 22 14 35 11 13 19 18 19 13 0 -6 -5 -14 -10 -17 -6 -4 -8 -14 -6 -23 6 -20 -8 -47 -25 -47 -7 0 -21 -12 -32 -27 l-20 -26 22 -35 c26 -42 26 -46 4 -42 -10 2 -21 4 -25 4 -4 1 -5 8 -2 16 4 8 11 12 17 8 6 -4 7 -1 2 7 -6 10 -12 7 -24 -9 -27 -35 -32 -13 -8 35 15 32 18 47 10 55 -8 8 -20 -12 -43 -72 -17 -45 -32 -90 -33 -101 -1 -10 -7 -18 -15 -18 -17 0 -360 59 -383 66 -16 4 -35 -23 -25 -34 4 -4 377 -71 399 -72 4 0 7 -20 7 -45 l0 -45 -55 0 c-42 0 -55 -3 -55 -15 0 -13 97 -15 815 -15 718 0 815 2 815 15 0 11 -13 15 -52 15 l-53 0 -1 40 -2 39 52 11 c59 12 337 60 349 60 4 0 7 9 7 20 0 11 -3 20 -7 20 -9 0 -331 -56 -379 -66 -31 -6 -32 -5 -39 34 -3 22 -19 66 -34 99 l-28 59 83 47 c59 34 81 52 77 62 -7 19 -23 19 -48 2 -11 -8 -45 -28 -76 -45 l-56 -32 -27 40 c-15 23 -44 59 -66 81 l-39 40 134 157 c116 136 131 159 119 172 -9 9 -17 11 -23 5 -4 -6 -57 -68 -116 -140 -158 -190 -134 -174 -196 -132 -30 19 -70 43 -90 52 l-37 18 39 95 c22 52 39 96 39 97 0 2 -9 5 -20 8 -16 4 -24 -9 -57 -90 -35 -90 -38 -94 -62 -88 -15 3 -61 11 -103 18 l-78 11 0 206 c0 199 -1 206 -20 206 -19 0 -20 -7 -20 -208z m85 -231 c34 -1 35 -2 13 -13 -16 -8 -25 -9 -29 -2 -4 6 -12 7 -18 4 -6 -4 -11 -3 -11 2 0 4 -16 8 -35 7 -19 -1 -32 2 -29 6 2 4 13 6 24 4 11 -2 20 1 20 7 0 7 5 6 15 -2 8 -6 30 -12 50 -13z m-155 -17 c-12 -22 -25 -26 -35 -10 -5 8 19 24 43 29 1 1 -2 -8 -8 -19z m-50 0 c0 -5 -5 -10 -11 -10 -5 0 -7 5 -4 10 3 6 8 10 11 10 2 0 4 -4 4 -10z m305 0 c20 -9 20 -9 0 -9 -11 0 -27 4 -35 9 -13 9 -13 10 0 9 8 0 24 -4 35 -9z m-385 -21 c0 -5 -7 -9 -16 -9 -8 0 -12 -4 -9 -10 3 -5 1 -10 -4 -10 -16 0 -13 20 4 26 8 4 12 11 8 17 -3 6 -1 7 5 3 7 -4 12 -11 12 -17z m444 9 c-5 -8 -2 -9 10 -5 10 4 15 3 11 -3 -3 -6 6 -15 21 -20 15 -6 25 -12 23 -13 -2 -2 -13 -9 -24 -17 -19 -14 -19 -14 -6 5 7 11 0 5 -18 -13 -19 -20 -31 -27 -31 -18 0 8 5 18 11 21 7 5 4 15 -7 32 -13 21 -14 27 -3 34 19 12 21 11 13 -3z m-184 -17 c0 -15 -5 -18 -21 -14 -20 6 -21 3 -18 -46 4 -48 3 -51 -20 -51 -22 0 -23 3 -19 50 5 47 4 51 -16 48 -13 -2 -22 3 -24 15 -3 15 5 17 57 17 53 0 61 -2 61 -19z m69 10 c8 -5 11 -16 6 -30 -5 -18 -2 -21 19 -21 19 0 26 5 26 20 0 20 24 28 34 11 3 -4 0 -34 -6 -65 -10 -44 -16 -56 -31 -56 -16 0 -18 5 -13 30 5 27 3 30 -19 30 -20 0 -25 -5 -25 -24 0 -20 -4 -23 -21 -19 -18 5 -20 11 -14 37 3 17 9 46 12 64 6 34 10 37 32 23z m-384 -20 c-3 -5 3 -12 13 -15 10 -3 18 -14 18 -25 0 -11 -5 -17 -13 -14 -7 3 -10 9 -7 14 3 5 -1 7 -8 4 -7 -3 -20 -1 -28 5 -13 8 -12 11 5 24 23 18 28 19 20 7z m162 -7 c3 -9 1 -24 -4 -34 -9 -13 -7 -19 8 -29 11 -6 25 -9 30 -5 8 4 7 9 -2 15 -11 7 -11 9 1 9 12 0 12 2 1 9 -9 6 -10 11 -2 15 11 7 28 -46 20 -59 -2 -4 4 -11 14 -16 9 -6 15 -14 12 -19 -3 -5 0 -12 6 -16 8 -5 9 -3 4 6 -6 9 -4 12 7 8 8 -4 21 2 28 12 13 18 15 18 41 3 15 -9 25 -21 22 -26 -3 -5 4 -4 16 3 25 13 65 4 55 -12 -5 -7 2 -9 18 -5 17 5 30 2 38 -8 7 -8 16 -13 20 -10 13 8 40 -6 33 -18 -3 -6 -1 -7 5 -3 11 7 17 -6 13 -28 -1 -5 6 -3 15 5 10 8 15 9 11 2 -4 -7 5 -15 23 -22 17 -5 30 -13 30 -16 0 -3 -4 -3 -10 0 -5 3 -10 2 -10 -2 0 -5 10 -13 23 -18 12 -6 22 -15 22 -22 0 -6 4 -15 9 -20 5 -5 6 -2 1 6 -5 9 -4 12 3 7 7 -4 12 -14 12 -22 0 -8 5 -14 11 -14 6 0 17 -7 25 -15 9 -9 11 -15 4 -15 -6 0 -2 -9 9 -21 11 -12 18 -32 16 -46 -1 -13 3 -27 10 -30 8 -2 12 -16 10 -33 -3 -18 1 -30 11 -34 9 -3 12 -11 8 -17 -4 -7 -3 -9 4 -5 6 3 15 -1 20 -10 8 -14 13 -14 32 -4 18 9 24 9 30 0 6 -9 11 -6 20 9 7 14 17 20 26 17 10 -4 12 -2 8 6 -5 7 -2 9 9 5 12 -5 14 0 11 21 -5 26 -5 26 15 8 16 -15 18 -22 10 -32 -6 -8 -9 -23 -6 -34 3 -11 1 -20 -5 -20 -6 0 -8 -6 -5 -14 7 -18 -32 -29 -50 -14 -7 6 -13 7 -13 2 0 -5 -19 -8 -42 -7 -85 4 -1219 4 -1226 0 -4 -3 -16 5 -27 16 -11 11 -15 17 -8 13 9 -5 11 2 8 24 -2 17 0 28 6 25 5 -4 9 4 9 17 0 17 -3 19 -9 9 -5 -7 -14 -10 -20 -6 -9 5 -7 11 6 21 21 16 37 18 28 4 -3 -5 3 -18 15 -30 11 -11 20 -25 20 -31 0 -8 5 -7 15 1 13 10 19 10 33 -4 10 -9 23 -16 29 -16 19 0 63 60 63 85 0 13 6 26 13 28 7 3 4 6 -6 6 -17 1 -17 2 2 27 11 14 17 32 14 42 -5 14 -2 14 18 -3 16 -13 19 -14 11 -3 -11 14 -9 23 13 58 15 24 30 38 37 34 7 -4 8 -3 4 4 -4 7 -3 12 3 12 5 0 13 -5 16 -10 8 -13 25 -3 25 13 0 8 -3 8 -9 -2 -5 -8 -11 -9 -15 -3 -3 5 9 26 28 47 23 25 35 32 39 23 4 -8 6 -7 6 5 1 11 6 15 13 11 6 -4 9 -3 6 2 -3 5 1 16 10 24 14 13 15 12 8 -5 -7 -18 -6 -18 14 0 15 14 20 15 20 4 0 -10 2 -11 8 -2 11 17 103 55 119 49 7 -3 13 -1 13 5 0 6 4 8 9 4 6 -3 9 4 8 15 -1 19 -17 29 -17 11 0 -20 -34 -21 -55 -1 -27 26 -38 25 -30 -1 5 -14 2 -25 -6 -30 -23 -14 -26 -11 -38 35 -6 24 -13 50 -16 59 -4 10 3 18 22 25 44 16 83 14 90 -4z m147 -40 c3 -8 2 -12 -4 -9 -6 3 -10 10 -10 16 0 14 7 11 14 -7z m-400 -31 c-1 -15 1 -35 7 -44 11 -21 -14 -20 -34 1 -10 10 -9 11 2 5 9 -5 12 -4 8 2 -3 5 -20 9 -36 8 -17 -1 -32 3 -34 9 -3 7 10 11 35 11 30 0 36 2 25 9 -14 9 -14 11 1 22 22 16 30 10 26 -23z m674 28 c11 -6 12 -24 7 -74 -7 -61 -9 -66 -26 -56 -11 5 -19 16 -19 23 0 17 -22 26 -48 19 -38 -10 -32 16 14 56 50 44 52 45 72 32z m107 -29 c17 -14 29 -29 28 -34 -2 -4 4 -8 12 -8 8 0 15 -7 15 -17 0 -14 -2 -14 -20 2 -11 10 -17 21 -15 26 11 17 -37 20 -56 3 -18 -16 -19 -16 -19 2 0 14 -2 16 -9 5 -6 -9 -10 -2 -13 23 -4 34 -3 35 22 29 14 -3 39 -17 55 -31z m-704 15 c67 -52 82 -69 68 -78 -8 -5 -20 -7 -26 -4 -19 7 -43 -5 -43 -21 0 -7 -8 -18 -19 -23 -17 -10 -19 -5 -26 54 -9 83 5 104 46 72z m708 -60 c7 -9 8 -24 1 -47 -13 -44 -6 -48 22 -15 20 22 26 25 35 14 9 -11 2 -25 -33 -64 -37 -41 -46 -47 -55 -35 -5 8 -8 32 -5 53 l4 39 -24 -23 c-18 -17 -27 -20 -35 -12 -8 8 -1 24 27 57 42 50 46 52 63 33z m-760 -74 c2 -1 1 -10 -3 -19 -6 -15 -12 -13 -43 17 -38 36 -36 26 5 -30 14 -19 21 -31 15 -28 -7 4 -14 3 -18 -3 -4 -7 -16 -4 -33 8 -51 35 -57 35 -24 0 47 -50 23 -58 -33 -11 -25 20 -45 39 -45 42 0 2 7 13 16 23 16 17 18 17 52 -4 35 -22 37 -13 4 25 -14 15 -13 19 3 37 19 20 19 20 59 -17 22 -21 42 -39 45 -40z m-155 32 c-4 -8 -8 -15 -10 -15 -2 0 -4 7 -4 15 0 8 4 15 10 15 5 0 7 -7 4 -15z m1015 -13 c-3 -18 2 -33 9 -28 5 3 18 -7 29 -23 15 -20 17 -28 8 -28 -8 0 -12 4 -9 8 2 4 -5 13 -17 19 -12 7 -19 8 -15 2 7 -12 -19 -23 -38 -16 -12 5 -12 9 2 25 21 25 22 40 2 57 -13 11 -11 11 7 2 13 -6 22 -14 22 -18z m-1035 -87 c-4 -8 -8 -15 -10 -15 -2 0 -4 7 -4 15 0 8 4 15 10 15 5 0 7 -7 4 -15z m1066 -10 c9 -11 5 -25 -26 -71 -33 -50 -39 -54 -50 -40 -6 9 -10 25 -7 35 3 13 -3 23 -23 33 -44 21 -39 34 18 45 75 15 74 15 88 -2z m-1030 -1 c0 -8 -19 -13 -24 -6 -3 5 1 9 9 9 8 0 15 -2 15 -3z m1072 -13 c-1 -7 2 -10 8 -6 13 8 13 -8 -1 -39 -14 -30 -38 -41 -53 -25 -8 9 -8 10 0 6 7 -4 18 1 25 10 12 15 12 16 -5 10 -16 -6 -17 -5 -6 8 7 8 16 12 21 9 5 -3 4 7 -1 21 -8 21 -7 26 2 22 7 -2 12 -10 10 -16z m-1034 -26 c7 -7 -11 -32 -31 -40 -15 -7 -22 -19 -22 -37 0 -41 -14 -38 -57 13 -56 66 -46 83 41 74 36 -4 67 -8 69 -10z m1059 -37 c-3 -8 -6 -5 -6 6 -1 11 2 17 5 13 3 -3 4 -12 1 -19z m-4 -49 c6 -23 2 -28 -23 -39 -40 -17 -38 -25 6 -25 28 0 38 -5 45 -22 7 -20 3 -23 -46 -37 -66 -20 -75 -20 -75 -1 0 8 14 17 35 21 52 9 51 20 -2 20 -25 -1 -48 4 -50 10 -2 5 15 20 37 33 49 27 52 35 5 15 -43 -18 -55 -18 -55 0 0 8 24 22 58 34 31 11 57 19 58 18 1 0 4 -13 7 -27z m-1251 -24 c-9 -11 -18 -22 -19 -24 -2 -3 -2 7 -1 22 2 17 8 25 20 24 16 -1 16 -2 0 -22z m1293 5 c-3 -5 -1 -19 5 -30 10 -19 10 -20 -9 -8 -21 13 -23 28 -6 40 14 11 17 10 10 -2z m-1245 -9 c0 -5 -7 -16 -15 -25 -8 -8 -15 -19 -15 -25 0 -20 15 -11 32 19 21 37 54 40 69 6 14 -29 -7 -79 -34 -84 -21 -4 -23 26 -2 34 15 6 22 34 8 34 -3 0 -18 -14 -32 -31 -40 -47 -80 -20 -59 41 12 32 48 56 48 31z"></path> <path d="M1130 955 c0 -9 6 -12 15 -9 8 4 15 10 15 15 0 5 -7 9 -15 9 -8 0 -15 -7 -15 -15z"></path> <path d="M1531 806 c-9 -10 -9 -16 -1 -21 6 -4 14 -4 17 -1 4 3 1 6 -7 6 -10 0 -10 3 0 15 7 8 10 15 7 15 -2 0 -10 -6 -16 -14z"></path> <path d="M1060 786 c0 -2 7 -7 16 -10 8 -3 12 -2 9 4 -6 10 -25 14 -25 6z"></path> <path d="M1700 640 c6 -11 13 -20 16 -20 2 0 0 9 -6 20 -6 11 -13 20 -16 20 -2 0 0 -9 6 -20z"></path> <path d="M637 419 c4 -13 8 -18 11 -10 2 7 -1 18 -6 23 -8 8 -9 4 -5 -13z"></path> <path d="M1581 896 c-7 -8 -8 -17 -3 -20 6 -3 13 1 16 10 9 23 2 28 -13 10z"></path> <path d="M1000 887 c0 -19 16 -31 24 -18 3 5 -1 14 -9 21 -12 10 -15 10 -15 -3z"></path> <path d="M1806 763 c-6 -14 -5 -15 5 -6 7 7 10 15 7 18 -3 3 -9 -2 -12 -12z"></path> <path d="M1808 692 c-19 -4 -24 -17 -9 -26 5 -3 14 1 21 9 15 18 12 23 -12 17z"></path> <path d="M773 643 c9 -9 20 -13 24 -9 4 4 1 11 -7 16 -25 16 -35 11 -17 -7z"></path> <path d="M490 318 c0 -10 170 -13 815 -13 645 0 815 3 815 13 0 9 -170 12 -815 12 -645 0 -815 -3 -815 -12z"></path> <path d="M2175 266 c-13 -20 -14 -29 -5 -46 24 -46 80 -43 102 6 25 54 -64 90 -97 40z m85 -6 c16 -30 -4 -60 -40 -60 -36 0 -56 30 -40 60 7 13 21 20 40 20 19 0 33 -7 40 -20z"></path> <path d="M2190 240 c0 -11 5 -20 10 -20 6 0 10 9 10 20 0 11 -4 20 -10 20 -5 0 -10 -9 -10 -20z"></path> <path d="M2240 249 c0 -5 -4 -7 -10 -4 -5 3 -10 -1 -10 -9 0 -9 7 -16 15 -16 8 0 15 9 15 20 0 11 -2 20 -5 20 -3 0 -5 -5 -5 -11z"></path> <path d="M490 265 c0 -13 97 -15 815 -15 718 0 815 2 815 15 0 13 -97 15 -815 15 -718 0 -815 -2 -815 -15z"></path> <path d="M458 165 c-3 -44 -3 -45 27 -44 23 1 25 3 8 6 -13 2 -23 11 -23 18 0 7 10 16 23 18 l22 4 -22 2 c-28 1 -31 21 -3 21 11 0 20 5 20 10 0 6 -11 10 -24 10 -21 0 -24 -5 -28 -45z"></path> <path d="M520 165 c0 -41 2 -45 25 -45 32 0 48 30 35 64 -7 19 -17 26 -35 26 -23 0 -25 -4 -25 -45z m48 -2 c-4 -39 -28 -42 -28 -4 0 21 5 31 16 31 11 0 14 -8 12 -27z"></path> <path d="M602 168 c3 -38 6 -43 28 -43 22 0 25 5 28 43 2 25 -1 42 -7 42 -6 0 -11 -18 -11 -41 0 -28 -4 -39 -12 -36 -7 2 -13 20 -13 40 0 21 -4 37 -8 37 -5 0 -7 -19 -5 -42z"></path> <path d="M682 198 c-14 -14 -16 -47 -3 -66 11 -17 43 -12 49 8 5 13 3 13 -12 1 -18 -15 -23 -14 -26 9 -5 33 0 42 21 37 13 -3 19 -1 16 6 -5 17 -30 20 -45 5z"></path> <path d="M753 168 c-10 -39 -7 -71 4 -40 3 6 11 12 18 12 7 0 15 -6 18 -12 2 -7 7 -11 10 -8 9 8 -16 90 -28 90 -6 0 -16 -19 -22 -42z m24 -10 c-3 -8 -6 -5 -6 6 -1 11 2 17 5 13 3 -3 4 -12 1 -19z"></path> <path d="M810 200 c0 -5 5 -10 10 -10 6 0 10 -16 10 -35 0 -19 5 -35 11 -35 6 0 8 13 5 35 -5 27 -2 35 9 35 8 0 15 5 15 10 0 6 -13 10 -30 10 -16 0 -30 -4 -30 -10z"></path> <path d="M878 165 c-3 -44 -3 -45 27 -44 23 1 25 3 8 6 -13 2 -23 11 -23 18 0 7 10 16 23 18 l22 4 -22 2 c-28 1 -31 21 -3 21 11 0 20 5 20 10 0 6 -11 10 -24 10 -21 0 -24 -5 -28 -45z"></path> <path d="M1060 165 c0 -43 1 -45 28 -44 23 2 24 2 5 6 -13 2 -23 11 -23 18 0 7 10 16 23 18 l22 4 -22 2 c-28 1 -31 21 -3 21 11 0 20 5 20 10 0 6 -11 10 -25 10 -23 0 -25 -4 -25 -45z"></path> <path d="M1131 163 c1 -43 2 -45 9 -18 11 44 11 65 0 65 -5 0 -9 -21 -9 -47z"></path> <path d="M1170 184 c0 -14 4 -23 9 -20 4 3 6 -6 3 -19 -2 -15 0 -25 7 -25 6 0 11 19 11 45 0 33 -4 45 -15 45 -9 0 -15 -10 -15 -26z"></path> <path d="M1210 165 c0 -25 5 -45 10 -45 6 0 10 7 10 15 0 8 6 15 14 15 16 0 31 34 21 50 -3 5 -17 10 -31 10 -22 0 -24 -4 -24 -45z m40 15 c0 -5 -7 -10 -16 -10 -8 0 -12 5 -9 10 3 6 10 10 16 10 5 0 9 -4 9 -10z"></path> <path d="M1284 186 c-10 -41 -1 -61 28 -64 22 -3 29 2 34 21 3 14 1 35 -6 46 -15 29 -48 27 -56 -3z m44 -23 c-4 -33 -24 -41 -33 -14 -8 25 1 41 21 41 11 0 14 -8 12 -27z"></path> <path d="M1354 193 c3 -10 8 -30 12 -45 8 -35 24 -37 24 -3 0 14 5 25 10 25 6 0 10 -11 10 -25 0 -29 16 -34 23 -7 15 52 16 72 7 72 -5 0 -10 -15 -11 -32 l-1 -33 -10 33 c-12 35 -28 43 -28 13 0 -11 -4 -23 -10 -26 -6 -4 -10 5 -10 19 0 14 -5 26 -11 26 -6 0 -8 -8 -5 -17z"></path> <path d="M1460 165 c0 -41 2 -45 25 -45 14 0 25 4 25 9 0 5 -9 7 -20 4 -14 -4 -20 0 -20 10 0 9 10 18 23 20 l22 4 -22 2 c-28 1 -31 21 -3 21 11 0 20 5 20 10 0 6 -11 10 -25 10 -23 0 -25 -4 -25 -45z"></path> <path d="M1522 165 c0 -45 18 -66 19 -22 l0 22 16 -22 c19 -28 38 -31 24 -5 -7 13 -7 22 0 29 17 17 -1 43 -31 43 -27 0 -28 -2 -28 -45z m48 15 c0 -5 -7 -10 -15 -10 -8 0 -15 5 -15 10 0 6 7 10 15 10 8 0 15 -4 15 -10z"></path> <path d="M1710 165 c0 -44 0 -45 33 -44 23 1 26 3 10 6 -13 2 -23 11 -23 18 0 7 10 16 23 18 l22 4 -22 2 c-28 1 -31 21 -3 21 11 0 20 5 20 10 0 6 -13 10 -30 10 -29 0 -30 -2 -30 -45z"></path> <path d="M1780 165 c0 -43 1 -45 28 -44 16 1 20 3 10 6 -13 3 -18 15 -18 44 0 21 -4 39 -10 39 -5 0 -10 -20 -10 -45z"></path> <path d="M1840 165 c0 -43 1 -45 30 -45 17 0 30 4 30 9 0 5 -9 7 -20 4 -14 -4 -20 0 -20 10 0 9 10 18 23 20 l22 4 -22 2 c-30 1 -29 17 1 23 20 4 25 -1 35 -34 7 -21 15 -38 20 -38 10 0 34 80 27 87 -3 3 -8 -2 -11 -11 -16 -51 -17 -52 -27 -18 -8 29 -12 32 -48 32 l-40 0 0 -45z"></path> <path d="M1981 169 c-7 -23 -10 -44 -7 -47 3 -3 6 0 6 6 0 7 9 12 20 12 11 0 20 -4 20 -10 0 -5 4 -10 9 -10 6 0 3 20 -6 45 -8 25 -18 45 -22 45 -4 0 -13 -18 -20 -41z m25 -16 c-10 -10 -19 5 -10 18 6 11 8 11 12 0 2 -7 1 -15 -2 -18z"></path> <path d="M2030 200 c0 -5 7 -10 16 -10 12 0 14 -8 10 -35 -4 -20 -2 -35 4 -35 6 0 10 16 10 35 0 19 5 35 10 35 6 0 10 5 10 10 0 6 -13 10 -30 10 -16 0 -30 -4 -30 -10z"></path> <path d="M2100 165 c0 -44 0 -45 33 -44 23 1 26 3 10 6 -13 2 -23 11 -23 18 0 7 10 16 23 18 l22 4 -22 2 c-28 1 -31 21 -3 21 11 0 20 5 20 10 0 6 -13 10 -30 10 -29 0 -30 -2 -30 -45z"></path> <path d="M1150 146 c0 -14 5 -26 10 -26 6 0 10 9 10 19 0 11 -4 23 -10 26 -6 4 -10 -5 -10 -19z"></path> <path d="M945 130 c-3 -5 -1 -10 4 -10 6 0 11 5 11 10 0 6 -2 10 -4 10 -3 0 -8 -4 -11 -10z"></path> <path d="M970 130 c0 -5 5 -10 10 -10 6 0 10 5 10 10 0 6 -4 10 -10 10 -5 0 -10 -4 -10 -10z"></path> <path d="M1000 130 c0 -5 5 -10 10 -10 6 0 10 5 10 10 0 6 -4 10 -10 10 -5 0 -10 -4 -10 -10z"></path> <path d="M1650 130 c0 -5 5 -10 10 -10 6 0 10 5 10 10 0 6 -4 10 -10 10 -5 0 -10 -4 -10 -10z"></path> <path d="M717 59 c7 -7 15 -10 18 -7 3 3 -2 9 -12 12 -14 6 -15 5 -6 -5z"></path> <path d="M1648 53 c7 -3 16 -2 19 1 4 3 -2 6 -13 5 -11 0 -14 -3 -6 -6z"></path> <path d="M150 10 c0 -5 5 -10 11 -10 5 0 7 5 4 10 -3 6 -8 10 -11 10 -2 0 -4 -4 -4 -10z"></path> <path d="M567 9 c7 -7 15 -10 18 -7 3 3 -2 9 -12 12 -14 6 -15 5 -6 -5z"></path> <path d="M1920 10 c0 -6 7 -10 15 -10 8 0 15 2 15 4 0 2 -7 6 -15 10 -8 3 -15 1 -15 -4z"></path> <path d="M2378 3 c7 -3 16 -2 19 1 4 3 -2 6 -13 5 -11 0 -14 -3 -6 -6z"></path> </g> </svg> 